<svg width="50" height="50" viewBox="0 0 50 50" fill="none" xmlns="http://www.w3.org/2000/svg">
<circle cx="25" cy="25" r="25" fill="white"/>
<path d="M10.8974 25.641C10.8974 23.6752 11.266 21.8376 12.0032 20.1282C12.7404 18.4188 13.75 16.9284 15.0321 15.6571C16.3141 14.3857 17.8098 13.3814 19.5192 12.6442C21.2286 11.9071 23.0556 11.5385 25 11.5385C26.9444 11.5385 28.7714 11.9071 30.4808 12.6442C32.1902 13.3814 33.6859 14.3857 34.9679 15.6571C36.25 16.9284 37.2596 18.4188 37.9968 20.1282C38.734 21.8376 39.1026 23.6752 39.1026 25.641H37.1795C37.1795 23.953 36.859 22.3665 36.2179 20.8814C35.5769 19.3964 34.7062 18.1036 33.6058 17.0032C32.5053 15.9028 31.2126 15.0374 29.7276 14.4071C28.2425 13.7767 26.6667 13.4615 25 13.4615C23.3333 13.4615 21.7575 13.7767 20.2724 14.4071C18.7874 15.0374 17.4947 15.9028 16.3942 17.0032C15.2938 18.1036 14.4231 19.3964 13.7821 20.8814C13.141 22.3665 12.8205 23.953 12.8205 25.641H10.8974ZM16.5064 25.641C16.5064 23.2692 17.3344 21.2607 18.9904 19.6154C20.6464 17.9701 22.6496 17.1474 25 17.1474C27.3504 17.1474 29.3536 17.9701 31.0096 19.6154C32.6656 21.2607 33.4936 23.2692 33.4936 25.641H31.5705C31.5705 23.8034 30.9295 22.2489 29.6474 20.9776C28.3654 19.7062 26.8162 19.0705 25 19.0705C23.1838 19.0705 21.6346 19.7062 20.3526 20.9776C19.0705 22.2489 18.4295 23.8034 18.4295 25.641H16.5064ZM21.1538 38.9744L19.8077 37.6282L24.0385 33.3974V28.3974C23.4615 28.141 22.9968 27.7618 22.6442 27.2596C22.2917 26.7575 22.1154 26.218 22.1154 25.641C22.1154 24.8291 22.3932 24.1453 22.9487 23.5897C23.5043 23.0342 24.188 22.7564 25 22.7564C25.812 22.7564 26.4957 23.0342 27.0513 23.5897C27.6068 24.1453 27.8846 24.8291 27.8846 25.641C27.8846 26.218 27.7083 26.7575 27.3558 27.2596C27.0032 27.7618 26.5385 28.141 25.9615 28.3974V33.3974L30.1923 37.6282L28.8462 38.9744L25 35.1282L21.1538 38.9744Z" fill="black"/>
</svg>
