<svg width="79" height="32" viewBox="0 0 79 32" fill="none" xmlns="http://www.w3.org/2000/svg">
<path d="M44.4972 0H34.1505V10.3467H44.4972V0Z" fill="white"/>
<path d="M30.1625 3.45118H26.7114V6.89892H30.1625V3.45118Z" fill="white"/>
<path d="M51.9398 3.45118H48.4886V6.89892H51.9398V3.45118Z" fill="white"/>
<path d="M66.1849 0H55.8417V10.3467H66.1849V0Z" fill="white"/>
<path d="M78.3587 0H68.012V10.3467H78.3587V0Z" fill="white"/>
<path d="M10.3879 0H0.0446777V10.3467H10.3879V0Z" fill="white"/>
<path d="M22.5583 0H12.2151V10.3467H22.5583V0Z" fill="white"/>
<path d="M76.3217 20.597H76.6658V23.9209H78.3553V24.2443H76.308L76.3217 20.597Z" fill="white"/>
<path d="M76.4834 27.6508H78.5479V27.9742H76.8516V29.3024H78.2279V29.6224H76.8516V30.9677H78.6443V31.3118H76.4972L76.4834 27.6508Z" fill="white"/>
<path d="M34.0404 20.597H34.3845V24.2443H34.0404V20.597Z" fill="white"/>
<path d="M35.8744 20.597H36.2185L38.0766 23.2224C38.2039 23.4013 38.3794 23.7144 38.3794 23.7144C38.3794 23.7144 38.3484 23.4116 38.3484 23.2224V20.597H38.6925V24.2443H38.3484L36.4869 21.6189C36.363 21.4366 36.1875 21.1269 36.1875 21.1269C36.1875 21.1269 36.2151 21.4262 36.2151 21.6189V24.2443H35.871L35.8744 20.597Z" fill="white"/>
<path d="M41.0116 20.9204H39.7007V20.597H42.6667V20.9204H41.3626V24.2443H41.0185L41.0116 20.9204Z" fill="white"/>
<path d="M43.6611 20.597H45.7256V20.9204H44.0292V22.2452H45.4056V22.5686H44.0292V23.9209H45.8185V24.2443H43.6748L43.6611 20.597Z" fill="white"/>
<path d="M47.0366 20.597H48.1136C48.3475 20.5799 48.5822 20.6139 48.8017 20.6968C48.98 20.7944 49.1265 20.9413 49.2236 21.1198C49.3209 21.2984 49.3646 21.5011 49.3495 21.7039C49.3347 21.9066 49.2621 22.1008 49.1396 22.2633C49.0175 22.4257 48.8513 22.5496 48.6606 22.6202C48.6964 22.6658 48.7288 22.7142 48.757 22.7647L49.5484 24.234H49.1355L48.3097 22.7097H47.3944V24.2477H47.0503L47.0366 20.597ZM48.2581 22.3862C48.416 22.3791 48.5681 22.3222 48.692 22.2239C48.8162 22.1256 48.906 21.9906 48.949 21.8383C48.992 21.686 48.9858 21.524 48.9318 21.3753C48.8774 21.2266 48.778 21.0987 48.6469 21.0099C48.4848 20.9387 48.3073 20.9091 48.1308 20.9239H47.3944V22.3897L48.2581 22.3862Z" fill="white"/>
<path d="M50.7079 20.597H51.052L52.9135 23.2224C53.0374 23.4013 53.2129 23.7144 53.2129 23.7144C53.2129 23.7144 53.1819 23.4116 53.1819 23.2224V20.597H53.526V24.2443H53.1819L51.3204 21.6189C51.1965 21.4366 51.0211 21.1269 51.0211 21.1269C51.0211 21.1269 51.052 21.4262 51.052 21.6189V24.2443H50.7079V20.597Z" fill="white"/>
<path d="M56.8293 23.0813H55.36L54.9471 24.2443H54.5686L55.9037 20.597H56.289L57.6275 24.2443H57.249L56.8293 23.0813ZM56.086 20.9892C56.086 20.9892 56.0069 21.292 55.9449 21.4606L55.4563 22.7819H56.7123L56.2374 21.4606C56.172 21.292 56.0963 20.9892 56.0963 20.9892H56.086Z" fill="white"/>
<path d="M59.2241 20.9204H57.9131V20.597H60.9032V20.9204H59.5957V24.2443H59.2516L59.2241 20.9204Z" fill="white"/>
<path d="M61.8735 20.597H62.2176V24.2443H61.8735V20.597Z" fill="white"/>
<path d="M65.3075 20.5351C65.5525 20.5332 65.7951 20.5801 66.0215 20.6731C66.2479 20.766 66.4537 20.9031 66.6267 21.0764C66.7995 21.2497 66.9364 21.4556 67.029 21.6823C67.1215 21.909 67.168 22.1517 67.1656 22.3966C67.1762 22.6471 67.1363 22.8972 67.0479 23.1318C66.9595 23.3664 66.8246 23.5807 66.6512 23.7618C66.4778 23.9428 66.2692 24.087 66.0387 24.1854C65.8082 24.2838 65.5601 24.3346 65.3092 24.3346C65.0584 24.3346 64.8103 24.2838 64.5798 24.1854C64.3492 24.087 64.1407 23.9428 63.9673 23.7618C63.7939 23.5807 63.659 23.3664 63.5706 23.1318C63.4821 22.8972 63.4422 22.6471 63.4529 22.3966C63.4505 22.1521 63.4969 21.9095 63.5891 21.6831C63.6817 21.4567 63.818 21.2509 63.9907 21.0776C64.1631 20.9044 64.3685 20.7672 64.5946 20.6741C64.8206 20.5809 65.0629 20.5337 65.3075 20.5351ZM65.3075 23.9759C65.5088 23.9715 65.7073 23.927 65.8914 23.8451C66.0755 23.7632 66.2414 23.6455 66.3793 23.4988C66.5173 23.3521 66.6247 23.1794 66.6956 22.9907C66.7661 22.8021 66.7984 22.6013 66.7905 22.4C66.8002 22.1995 66.7692 21.9991 66.699 21.8109C66.6288 21.6228 66.5215 21.4508 66.3828 21.3055C66.2445 21.1602 66.0779 21.0444 65.8931 20.9654C65.7087 20.8863 65.5098 20.8456 65.3092 20.8456C65.1086 20.8456 64.9098 20.8863 64.7253 20.9654C64.5405 21.0444 64.374 21.1602 64.2357 21.3055C64.097 21.4508 63.9897 21.6228 63.9195 21.8109C63.8493 21.9991 63.8183 22.1995 63.8279 22.4C63.82 22.6008 63.8524 22.8012 63.9229 22.9894C63.9931 23.1776 64.1005 23.35 64.2381 23.4963C64.3757 23.6427 64.5412 23.7602 64.725 23.8419C64.9087 23.9237 65.1066 23.9681 65.3075 23.9725V23.9759Z" fill="white"/>
<path d="M68.3905 20.597H68.7346L70.5961 23.2224C70.72 23.4013 70.8955 23.7144 70.8955 23.7144C70.8955 23.7144 70.8817 23.3978 70.8817 23.2224V20.597H71.2258V24.2443H70.8817L69.0202 21.6189C68.8963 21.4366 68.7209 21.1269 68.7209 21.1269C68.7209 21.1269 68.7518 21.4262 68.7518 21.6189V24.2443H68.4077L68.3905 20.597Z" fill="white"/>
<path d="M74.5118 23.0813H73.0426L72.6297 24.2443H72.2581L73.5931 20.597H73.9785L75.317 24.2443H74.9385L74.5118 23.0813ZM73.7755 20.9892C73.7755 20.9892 73.6963 21.292 73.6344 21.4606L73.1458 22.7819H74.4017L73.9234 21.4606C73.8615 21.292 73.7858 20.9892 73.7858 20.9892H73.7755Z" fill="white"/>
<path d="M39.8417 27.6508H40.1858L42.0507 30.2796C42.1746 30.4619 42.3501 30.7716 42.3501 30.7716C42.3501 30.7716 42.3226 30.4688 42.3226 30.2796V27.6508H42.6667V31.3118H42.3226L40.4611 28.6865C40.3372 28.5041 40.1617 28.1944 40.1617 28.1944C40.1617 28.1944 40.1927 28.4938 40.1927 28.6865V31.3118H39.8486L39.8417 27.6508Z" fill="white"/>
<path d="M45.557 30.6237C45.8133 30.8716 46.1536 31.0141 46.5101 31.0228C46.5999 31.0323 46.6904 31.0232 46.7764 30.9962C46.8625 30.9692 46.9419 30.9248 47.0101 30.8658C47.0782 30.8067 47.1333 30.7342 47.1721 30.6529C47.211 30.5716 47.233 30.4832 47.2361 30.3931C47.2361 29.4744 45.4194 29.7049 45.4194 28.5798C45.4252 28.4395 45.4596 28.3019 45.5205 28.1754C45.5814 28.0489 45.6675 27.9361 45.7734 27.844C45.8794 27.7519 46.0033 27.6823 46.1368 27.6396C46.2706 27.597 46.4117 27.582 46.5514 27.5957C46.9089 27.583 47.2578 27.7059 47.5286 27.9398L47.3497 28.2391C47.1288 28.0446 46.8459 27.9348 46.5514 27.9295C46.4595 27.9185 46.3659 27.9263 46.2772 27.9523C46.1881 27.9783 46.1051 28.0221 46.0336 28.0809C45.962 28.1397 45.9028 28.2123 45.8601 28.2945C45.8171 28.3767 45.7913 28.4667 45.7841 28.5591C45.7841 29.4262 47.6043 29.1785 47.6043 30.3725C47.6026 30.5118 47.572 30.6493 47.5142 30.7761C47.4567 30.9029 47.3731 31.0164 47.2695 31.1093C47.1656 31.2021 47.0435 31.2724 46.911 31.3155C46.7785 31.3587 46.6385 31.3739 46.4998 31.36C46.2861 31.3635 46.0738 31.3239 45.8756 31.2435C45.6778 31.163 45.4978 31.0435 45.3471 30.892L45.557 30.6237Z" fill="white"/>
<path d="M50.2159 30.6237C50.4722 30.8716 50.8125 31.0141 51.169 31.0228C51.2588 31.0323 51.3493 31.0232 51.4353 30.9962C51.5214 30.9692 51.6008 30.9248 51.669 30.8657C51.7371 30.8067 51.7922 30.7342 51.831 30.6529C51.8699 30.5716 51.8919 30.4832 51.895 30.3931C51.895 29.4744 50.0748 29.7049 50.0748 28.5798C50.0831 28.44 50.1192 28.3033 50.1811 28.1777C50.2431 28.0521 50.3294 27.9401 50.4351 27.8484C50.5411 27.7567 50.6642 27.6871 50.7971 27.6437C50.9302 27.6003 51.0709 27.584 51.2103 27.5957C51.5678 27.583 51.9167 27.7059 52.1875 27.9398L52.0086 28.2391C51.7877 28.0446 51.5048 27.9348 51.2103 27.9295C51.1184 27.9185 51.0248 27.9263 50.9361 27.9523C50.8469 27.9783 50.764 28.0221 50.6925 28.0809C50.6209 28.1397 50.5617 28.2123 50.519 28.2945C50.476 28.3767 50.4502 28.4667 50.443 28.5591C50.443 29.4262 52.2632 29.1785 52.2632 30.3725C52.2615 30.5118 52.2309 30.6493 52.1731 30.7761C52.1156 30.9029 52.032 31.0164 51.9284 31.1093C51.8245 31.2021 51.7023 31.2724 51.5699 31.3155C51.4374 31.3587 51.2974 31.3739 51.1587 31.36C50.9447 31.3632 50.732 31.3234 50.5331 31.243C50.3346 31.1627 50.1543 31.0433 50.0026 30.892L50.2159 30.6237Z" fill="white"/>
<path d="M56.5265 30.6237C56.7838 30.8721 57.1252 31.0146 57.483 31.0228C57.5725 31.0323 57.6633 31.0232 57.7493 30.9962C57.8354 30.9692 57.9148 30.9248 57.983 30.8657C58.0508 30.8067 58.1062 30.7342 58.145 30.6529C58.1839 30.5716 58.2056 30.4832 58.209 30.3931C58.209 29.4744 56.3888 29.7049 56.3888 28.5798C56.3971 28.44 56.4332 28.3033 56.4951 28.1777C56.5567 28.0521 56.6434 27.9401 56.7491 27.8484C56.8551 27.7567 56.9779 27.6871 57.1111 27.6437C57.2442 27.6003 57.3846 27.584 57.5243 27.5957C57.8808 27.5825 58.229 27.7055 58.4981 27.9398L58.3226 28.2391C58.1017 28.0446 57.8185 27.9348 57.5243 27.9295C57.4321 27.918 57.3382 27.9254 57.249 27.9512C57.1596 27.977 57.0763 28.0206 57.0044 28.0795C56.9321 28.1383 56.873 28.2112 56.8296 28.2936C56.7866 28.3761 56.7608 28.4664 56.7536 28.5591C56.7536 29.4262 58.5772 29.1785 58.5772 30.3725C58.5755 30.5128 58.5449 30.6512 58.4864 30.7788C58.4282 30.9064 58.3436 31.0204 58.2386 31.1134C58.1337 31.2065 58.0105 31.2765 57.8767 31.3189C57.7428 31.3614 57.6017 31.3754 57.4624 31.36C57.248 31.3632 57.0354 31.3234 56.8368 31.243C56.6383 31.1627 56.458 31.0433 56.3062 30.892L56.5265 30.6237Z" fill="white"/>
<path d="M59.7918 27.6508H61.8564V27.9742H60.16V29.3024H61.5363V29.6224H60.16V30.9677H61.9355V31.3118H59.7884L59.7918 27.6508Z" fill="white"/>
<path d="M63.1673 27.6508H64.2443C64.4783 27.6336 64.7129 27.6677 64.9325 27.7505C65.111 27.8479 65.2576 27.9945 65.355 28.1728C65.4524 28.3512 65.4964 28.5538 65.482 28.7565C65.4675 28.9592 65.3949 29.1535 65.2731 29.3162C65.1513 29.4788 64.9854 29.603 64.7948 29.674C64.7948 29.674 64.8292 29.7221 64.8877 29.8185L65.6791 31.2877H65.2697L64.4473 29.7531H63.5286V31.3118H63.1845L63.1673 27.6508ZM64.3922 29.44C64.5491 29.4307 64.6995 29.3728 64.822 29.2743C64.9445 29.1757 65.0333 29.0415 65.0763 28.8901C65.119 28.7388 65.1134 28.5779 65.0605 28.4298C65.0078 28.2817 64.9101 28.1537 64.7811 28.0637C64.6176 27.993 64.439 27.9635 64.2615 27.9776H63.5251V29.4434L64.3922 29.44Z" fill="white"/>
<path d="M66.3742 27.6508H66.7527L67.7643 30.4034C67.8331 30.5927 67.9054 30.8748 67.9054 30.8748C67.9054 30.8748 67.9776 30.5927 68.043 30.4034L69.0546 27.6508H69.44L68.0981 31.3118H67.7264L66.3742 27.6508Z" fill="white"/>
<path d="M70.4585 27.6508H70.8026V31.3118H70.4585V27.6508Z" fill="white"/>
<path d="M73.8787 27.5888C74.3604 27.5692 74.8308 27.7384 75.1897 28.0602L74.997 28.3252C74.6866 28.0647 74.2943 27.9221 73.889 27.9226C73.6908 27.9205 73.4943 27.9589 73.3113 28.0355C73.1286 28.1121 72.9631 28.2252 72.8258 28.3679C72.6881 28.5106 72.5811 28.68 72.5113 28.8655C72.4414 29.0511 72.4105 29.2489 72.4198 29.4469C72.4091 29.6487 72.4394 29.8506 72.5085 30.0405C72.5777 30.2304 72.6847 30.4043 72.823 30.5518C72.9614 30.6993 73.1279 30.8174 73.3127 30.8989C73.4978 30.9804 73.6974 31.0237 73.8993 31.0262C74.3408 31.0239 74.764 30.8499 75.0795 30.5411L75.2894 30.7923C75.106 30.975 74.8879 31.1194 74.6481 31.2168C74.4082 31.3143 74.1512 31.363 73.8925 31.36C73.6444 31.3611 73.3987 31.312 73.1699 31.2156C72.9414 31.1192 72.7346 30.9775 72.5626 30.799C72.3902 30.6206 72.2556 30.4091 72.1672 30.1773C72.0788 29.9455 72.0385 29.6982 72.0481 29.4503C72.0413 29.2066 72.0836 28.964 72.1727 28.737C72.2618 28.51 72.3957 28.3035 72.5667 28.1296C72.7377 27.9557 72.9421 27.8182 73.1675 27.7253C73.3928 27.6324 73.6347 27.5859 73.8787 27.5888Z" fill="white"/>
<path d="M35.5647 31.3531C35.0627 31.3463 34.5841 31.1403 34.2341 30.7806C33.8841 30.4208 33.6912 29.9368 33.6981 29.4348C33.7049 28.9329 33.9109 28.4543 34.2706 28.1042C34.6305 27.7542 35.1143 27.5613 35.6163 27.5682C36.086 27.5507 36.546 27.7021 36.9135 27.9948L36.7208 28.2632C36.4057 28.033 36.0237 27.9122 35.6335 27.9191C35.2475 27.9515 34.8876 28.1267 34.624 28.4104C34.3603 28.6942 34.2121 29.0661 34.2082 29.4534C34.2043 29.8407 34.3451 30.2155 34.603 30.5045C34.8611 30.7935 35.2172 30.9759 35.6026 31.0159C35.8224 31.025 36.0409 30.9813 36.2405 30.8885C36.4397 30.7957 36.6138 30.6566 36.7484 30.4826V29.8735H35.7161V29.5501H37.0925V30.6443C36.9999 30.7849 36.8833 30.9083 36.7484 31.009C36.4088 31.2637 35.9879 31.386 35.5647 31.3531Z" fill="white"/>
<path d="M0 20.449H1.08731V31.5183H0V20.449Z" fill="white"/>
<path d="M8.97725 31.7075C6.10069 31.7075 3.55789 29.2645 3.55789 25.975C3.55789 22.7785 5.96649 20.2598 9.13553 20.2598C11.699 20.2598 13.0753 21.5501 13.0753 21.5501L12.4869 22.3656C11.5358 21.6444 10.3738 21.2563 9.18026 21.2611C6.50327 21.2611 4.70714 23.3256 4.70714 25.9544C4.70714 28.6796 6.57897 30.6684 9.10112 30.6959C9.76682 30.7274 10.4302 30.5962 11.0339 30.3139C11.6376 30.0315 12.1634 29.6064 12.5661 29.0753V27.2034H9.43832V26.2262H13.6052V29.5535C13.3156 29.9824 12.9521 30.3564 12.5317 30.6581C11.434 31.4701 10.4465 31.7075 8.97725 31.7075Z" fill="white"/>
<path d="M16.0654 29.4538C16.8442 30.2083 17.8785 30.642 18.9626 30.6684C20.1738 30.6684 21.1648 29.9424 21.1648 28.745C21.1648 25.9579 15.6387 26.6804 15.6387 23.2396C15.6387 21.6499 17.0392 20.2667 19.0796 20.2667C20.1688 20.2329 21.2303 20.6141 22.0491 21.3333L21.5123 22.2452C20.8405 21.654 19.9811 21.32 19.0865 21.3024C17.6688 21.3024 16.757 22.2314 16.757 23.2052C16.757 25.8374 22.283 25.0804 22.283 28.7105C22.283 30.3656 21.0099 31.7041 18.9316 31.7041C18.2806 31.7132 17.6343 31.5919 17.0309 31.3472C16.4276 31.1026 15.8793 30.7395 15.4185 30.2796L16.0654 29.4538Z" fill="white"/>
</svg>
