<svg width="151" height="52" viewBox="0 0 151 52" fill="none" xmlns="http://www.w3.org/2000/svg">
<path d="M72.1117 0H55.344V16.7677H72.1117V0Z" fill="white"/>
<path d="M48.881 5.59296H43.2881V11.1803H48.881V5.59296Z" fill="white"/>
<path d="M84.1725 5.59296H78.5796V11.1803H84.1725V5.59296Z" fill="white"/>
<path d="M107.258 0H90.4961V16.7677H107.258V0Z" fill="white"/>
<path d="M126.987 0H110.219V16.7677H126.987V0Z" fill="white"/>
<path d="M16.8346 0H0.0725098V16.7677H16.8346V0Z" fill="white"/>
<path d="M36.5575 0H19.7954V16.7677H36.5575V0Z" fill="white"/>
<path d="M123.686 33.3792H124.243V38.7658H126.981V39.2899H123.664L123.686 33.3792Z" fill="white"/>
<path d="M123.948 44.8104H127.294V45.3346H124.545V47.487H126.775V48.0056H124.545V50.1859H127.45V50.7435H123.971L123.948 44.8104Z" fill="white"/>
<path d="M55.1653 33.3792H55.7229V39.2899H55.1653V33.3792Z" fill="white"/>
<path d="M58.1374 33.3792H58.695L61.7062 37.6338C61.9125 37.9238 62.1969 38.4312 62.1969 38.4312C62.1969 38.4312 62.1467 37.9405 62.1467 37.6338V33.3792H62.7043V39.2899H62.1467L59.13 35.0353C58.9292 34.7397 58.6448 34.2379 58.6448 34.2379C58.6448 34.2379 58.6895 34.723 58.6895 35.0353V39.2899H58.1318L58.1374 33.3792Z" fill="white"/>
<path d="M66.4627 33.9033H64.3381V33.3792H69.1448V33.9033H67.0314V39.2899H66.4738L66.4627 33.9033Z" fill="white"/>
<path d="M70.7563 33.3792H74.1021V33.9033H71.353V36.0502H73.5835V36.5743H71.353V38.7658H74.2526V39.2899H70.7787L70.7563 33.3792Z" fill="white"/>
<path d="M76.2268 33.3792H77.9722C78.3513 33.3514 78.7316 33.4066 79.0874 33.5409C79.3763 33.6991 79.6138 33.9371 79.771 34.2265C79.9289 34.5158 79.9997 34.8444 79.9751 35.1729C79.9512 35.5015 79.8335 35.8162 79.635 36.0795C79.437 36.3428 79.1677 36.5436 78.8588 36.658C78.9168 36.7319 78.9692 36.8102 79.0149 36.8922L80.2974 39.2732H79.6283L78.29 36.803H76.8067V39.2955H76.2491L76.2268 33.3792ZM78.2064 36.2788C78.4623 36.2672 78.7088 36.1751 78.9095 36.0157C79.1108 35.8564 79.2564 35.6377 79.3261 35.3909C79.3958 35.144 79.3857 34.8815 79.2982 34.6405C79.2101 34.3995 79.0489 34.1923 78.8365 34.0483C78.5738 33.9329 78.2861 33.885 78 33.9089H76.8067V36.2844L78.2064 36.2788Z" fill="white"/>
<path d="M82.1768 33.3792H82.7344L85.7511 37.6338C85.9519 37.9238 86.2362 38.4312 86.2362 38.4312C86.2362 38.4312 86.1861 37.9405 86.1861 37.6338V33.3792H86.7437V39.2899H86.1861L83.1693 35.0353C82.9686 34.7397 82.6842 34.2379 82.6842 34.2379C82.6842 34.2379 82.7344 34.723 82.7344 35.0353V39.2899H82.1768V33.3792Z" fill="white"/>
<path d="M92.0967 37.4052H89.7156L89.0465 39.2899H88.4331L90.5967 33.3792H91.2212L93.3904 39.2899H92.777L92.0967 37.4052ZM90.8922 34.0148C90.8922 34.0148 90.764 34.5055 90.6636 34.7788L89.8718 36.92H91.9071L91.1376 34.7788C91.0316 34.5055 90.9089 34.0148 90.9089 34.0148H90.8922Z" fill="white"/>
<path d="M95.9778 33.9033H93.8533V33.3792H98.699V33.9033H96.58V39.2899H96.0224L95.9778 33.9033Z" fill="white"/>
<path d="M100.271 33.3792H100.829V39.2899H100.271V33.3792Z" fill="white"/>
<path d="M105.836 33.2788C106.233 33.2759 106.627 33.3519 106.994 33.5025C107.36 33.6531 107.694 33.8753 107.974 34.1561C108.254 34.4369 108.476 34.7707 108.626 35.138C108.776 35.5054 108.851 35.8988 108.848 36.2956C108.865 36.7015 108.8 37.1068 108.657 37.487C108.514 37.8673 108.295 38.2146 108.014 38.508C107.733 38.8015 107.395 39.035 107.021 39.1945C106.648 39.354 106.246 39.4362 105.839 39.4362C105.433 39.4362 105.031 39.354 104.657 39.1945C104.283 39.035 103.946 38.8015 103.665 38.508C103.383 38.2146 103.165 37.8673 103.022 37.487C102.878 37.1068 102.814 36.7015 102.831 36.2956C102.827 35.8993 102.902 35.5062 103.052 35.1393C103.202 34.7724 103.423 34.4388 103.702 34.1581C103.982 33.8774 104.315 33.6551 104.681 33.5041C105.047 33.3532 105.44 33.2766 105.836 33.2788ZM105.836 38.855C106.163 38.8479 106.484 38.7758 106.783 38.643C107.081 38.5103 107.35 38.3195 107.573 38.0818C107.797 37.8441 107.971 37.5642 108.086 37.2585C108.2 36.9528 108.253 36.6273 108.24 36.3011C108.255 35.9762 108.205 35.6514 108.091 35.3465C107.978 35.0416 107.804 34.7629 107.579 34.5274C107.355 34.2919 107.085 34.1043 106.786 33.9762C106.487 33.8481 106.164 33.782 105.839 33.782C105.514 33.782 105.192 33.8481 104.893 33.9762C104.594 34.1043 104.324 34.2919 104.099 34.5274C103.875 34.7629 103.701 35.0416 103.587 35.3465C103.473 35.6514 103.423 35.9762 103.439 36.3011C103.426 36.6266 103.478 36.9513 103.593 37.2563C103.706 37.5614 103.88 37.8406 104.103 38.0778C104.326 38.315 104.595 38.5054 104.892 38.6379C105.19 38.7704 105.511 38.8423 105.836 38.8495V38.855Z" fill="white"/>
<path d="M110.833 33.3792H111.39L114.407 37.6338C114.608 37.9238 114.892 38.4312 114.892 38.4312C114.892 38.4312 114.87 37.9182 114.87 37.6338V33.3792H115.427V39.2899H114.87L111.853 35.0353C111.652 34.7397 111.368 34.2379 111.368 34.2379C111.368 34.2379 111.418 34.723 111.418 35.0353V39.2899H110.86L110.833 33.3792Z" fill="white"/>
<path d="M120.753 37.4052H118.372L117.703 39.2899H117.1L119.264 33.3792H119.888L122.058 39.2899H121.444L120.753 37.4052ZM119.559 34.0148C119.559 34.0148 119.431 34.5055 119.331 34.7788L118.539 36.92H120.574L119.799 34.7788C119.699 34.5055 119.576 34.0148 119.576 34.0148H119.559Z" fill="white"/>
<path d="M64.5669 44.8104H65.1245L68.1468 49.0706C68.3476 49.3662 68.632 49.868 68.632 49.868C68.632 49.868 68.5873 49.3773 68.5873 49.0706V44.8104H69.145V50.7435H68.5873L65.5706 46.4888C65.3699 46.1933 65.0855 45.6914 65.0855 45.6914C65.0855 45.6914 65.1357 46.1766 65.1357 46.4888V50.7435H64.578L64.5669 44.8104Z" fill="white"/>
<path d="M73.8292 49.6282C74.2446 50.0301 74.7961 50.2609 75.3738 50.2751C75.5193 50.2905 75.666 50.2758 75.8054 50.232C75.9448 50.1883 76.0736 50.1163 76.184 50.0206C76.2944 49.9248 76.3836 49.8075 76.4466 49.6757C76.5096 49.5439 76.5453 49.4006 76.5504 49.2546C76.5504 47.7658 73.6061 48.1394 73.6061 46.316C73.6156 46.0886 73.6714 45.8656 73.7701 45.6606C73.8688 45.4556 74.0082 45.2728 74.1799 45.1236C74.3517 44.9743 74.5524 44.8616 74.7688 44.7924C74.9857 44.7232 75.2143 44.699 75.4407 44.7212C76.0201 44.7006 76.5855 44.8998 77.0243 45.2788L76.7344 45.7639C76.3764 45.4486 75.918 45.2708 75.4407 45.2621C75.2918 45.2443 75.1401 45.2569 74.9963 45.2991C74.8518 45.3412 74.7175 45.4121 74.6015 45.5074C74.4855 45.6027 74.3896 45.7205 74.3204 45.8537C74.2507 45.9869 74.2089 46.1327 74.1972 46.2825C74.1972 47.6877 77.147 47.2862 77.147 49.2212C77.1442 49.447 77.0946 49.6697 77.0009 49.8753C76.9078 50.0808 76.7723 50.2647 76.6044 50.4152C76.436 50.5657 76.2381 50.6795 76.0234 50.7495C75.8087 50.8195 75.5818 50.844 75.357 50.8215C75.0108 50.8272 74.6667 50.763 74.3455 50.6327C74.0249 50.5024 73.7333 50.3087 73.489 50.0632L73.8292 49.6282Z" fill="white"/>
<path d="M81.3789 49.6282C81.7944 50.0301 82.3458 50.2609 82.9235 50.2751C83.0691 50.2905 83.2157 50.2758 83.3551 50.232C83.4945 50.1883 83.6233 50.1163 83.7338 50.0205C83.8442 49.9248 83.9334 49.8075 83.9964 49.6757C84.0594 49.5439 84.0951 49.4006 84.1001 49.2546C84.1001 47.7658 81.1503 48.1394 81.1503 46.316C81.1637 46.0895 81.2222 45.8679 81.3226 45.6643C81.423 45.4608 81.5629 45.2794 81.7341 45.1308C81.9059 44.9821 82.1055 44.8693 82.3207 44.799C82.5365 44.7287 82.7646 44.7022 82.9904 44.7212C83.5698 44.7006 84.1352 44.8998 84.5741 45.2788L84.2841 45.7639C83.9261 45.4486 83.4678 45.2708 82.9904 45.2621C82.8416 45.2443 82.6899 45.2569 82.546 45.2991C82.4016 45.3413 82.2672 45.4121 82.1512 45.5074C82.0352 45.6027 81.9393 45.7205 81.8702 45.8537C81.8005 45.9869 81.7587 46.1327 81.747 46.2825C81.747 47.6877 84.6968 47.2862 84.6968 49.2212C84.694 49.447 84.6444 49.6697 84.5507 49.8753C84.4576 50.0808 84.3221 50.2647 84.1542 50.4152C83.9858 50.5657 83.7878 50.6795 83.5732 50.7495C83.3585 50.8194 83.1315 50.844 82.9068 50.8216C82.56 50.8267 82.2154 50.7623 81.8931 50.632C81.5713 50.5018 81.2791 50.3083 81.0332 50.0632L81.3789 49.6282Z" fill="white"/>
<path d="M91.6059 49.6282C92.023 50.0309 92.5762 50.2618 93.1561 50.2751C93.3011 50.2905 93.4483 50.2758 93.5877 50.232C93.7271 50.1883 93.8559 50.1163 93.9663 50.0205C94.0762 49.9248 94.1659 49.8075 94.2289 49.6757C94.292 49.5439 94.3271 49.4006 94.3327 49.2546C94.3327 47.7658 91.3829 48.1394 91.3829 46.316C91.3962 46.0895 91.4548 45.8679 91.5552 45.6643C91.655 45.4608 91.7955 45.2794 91.9667 45.1308C92.1384 44.9821 92.3375 44.8693 92.5533 44.799C92.7691 44.7287 92.9966 44.7022 93.223 44.7212C93.8007 44.6998 94.365 44.8992 94.8011 45.2788L94.5167 45.7639C94.1587 45.4486 93.6998 45.2708 93.223 45.2621C93.0736 45.2435 92.9213 45.2555 92.7769 45.2973C92.6319 45.3391 92.497 45.4098 92.3804 45.5052C92.2633 45.6006 92.1674 45.7187 92.0972 45.8523C92.0275 45.9859 91.9856 46.1322 91.9739 46.2825C91.9739 47.6877 94.9293 47.2862 94.9293 49.2212C94.9265 49.4485 94.8769 49.6729 94.7821 49.8797C94.6879 50.0864 94.5507 50.2712 94.3806 50.422C94.2105 50.5727 94.0109 50.6862 93.794 50.755C93.5771 50.8238 93.3485 50.8465 93.1226 50.8216C92.7752 50.8267 92.4306 50.7623 92.1089 50.632C91.7871 50.5018 91.4949 50.3083 91.249 50.0632L91.6059 49.6282Z" fill="white"/>
<path d="M96.8977 44.8104H100.243V45.3346H97.4943V47.487H99.7248V48.0056H97.4943V50.1859H100.372V50.7435H96.8921L96.8977 44.8104Z" fill="white"/>
<path d="M102.368 44.8104H104.114C104.493 44.7827 104.873 44.8379 105.229 44.9721C105.518 45.1299 105.756 45.3674 105.914 45.6565C106.071 45.9455 106.143 46.2739 106.119 46.6024C106.096 46.9309 105.978 47.2457 105.781 47.5094C105.583 47.773 105.315 47.9743 105.006 48.0892C105.006 48.0892 105.061 48.1673 105.156 48.3234L106.439 50.7045H105.775L104.443 48.2175H102.954V50.7435H102.396L102.368 44.8104ZM104.353 47.7101C104.608 47.6951 104.851 47.6012 105.05 47.4415C105.248 47.2818 105.392 47.0642 105.462 46.8189C105.531 46.5737 105.522 46.3129 105.436 46.0729C105.351 45.8329 105.193 45.6255 104.983 45.4796C104.719 45.365 104.429 45.3172 104.141 45.3402H102.948V47.7156L104.353 47.7101Z" fill="white"/>
<path d="M107.565 44.8104H108.178L109.818 49.2714C109.929 49.5781 110.046 50.0353 110.046 50.0353C110.046 50.0353 110.163 49.5781 110.269 49.2714L111.909 44.8104H112.533L110.359 50.7435H109.756L107.565 44.8104Z" fill="white"/>
<path d="M114.184 44.8104H114.741V50.7435H114.184V44.8104Z" fill="white"/>
<path d="M119.727 44.7101C120.507 44.6783 121.27 44.9525 121.851 45.474L121.539 45.9034C121.036 45.4812 120.4 45.2502 119.743 45.251C119.422 45.2475 119.104 45.3098 118.807 45.4339C118.511 45.558 118.243 45.7413 118.02 45.9726C117.797 46.2039 117.624 46.4783 117.511 46.779C117.397 47.0797 117.347 47.4003 117.362 47.7212C117.345 48.0483 117.394 48.3755 117.506 48.6832C117.618 48.991 117.792 49.2728 118.016 49.5118C118.24 49.7509 118.51 49.9422 118.809 50.0743C119.109 50.2065 119.433 50.2766 119.76 50.2807C120.476 50.277 121.161 49.995 121.673 49.4944L122.013 49.9015C121.716 50.1977 121.362 50.4316 120.973 50.5896C120.585 50.7475 120.168 50.8264 119.749 50.8216C119.347 50.8234 118.949 50.7438 118.578 50.5875C118.208 50.4313 117.873 50.2017 117.594 49.9125C117.314 49.6233 117.096 49.2805 116.953 48.9049C116.81 48.5293 116.744 48.1285 116.76 47.7268C116.749 47.3318 116.818 46.9386 116.962 46.5708C117.106 46.203 117.323 45.8682 117.6 45.5864C117.878 45.3046 118.209 45.0818 118.574 44.9312C118.939 44.7806 119.331 44.7054 119.727 44.7101Z" fill="white"/>
<path d="M57.6357 50.8104C56.8221 50.7993 56.0465 50.4656 55.4794 49.8826C54.912 49.2995 54.5995 48.5151 54.6106 47.7017C54.6217 46.8883 54.9555 46.1126 55.5385 45.5453C56.1217 44.978 56.9058 44.6655 57.7193 44.6766C58.4805 44.6483 59.226 44.8936 59.8215 45.368L59.5093 45.803C58.9985 45.4299 58.3795 45.234 57.7472 45.2453C57.1215 45.2978 56.5383 45.5816 56.1111 46.0415C55.6838 46.5014 55.4436 47.1041 55.4373 47.7318C55.4311 48.3594 55.6592 48.9669 56.0771 49.4352C56.4953 49.9035 57.0725 50.199 57.697 50.2639C58.0533 50.2787 58.4074 50.2079 58.7308 50.0575C59.0537 49.9071 59.3359 49.6816 59.5539 49.3996V48.4126H57.881V47.8885H60.1115V49.6617C59.9615 49.8895 59.7725 50.0896 59.5539 50.2528C59.0035 50.6654 58.3216 50.8637 57.6357 50.8104Z" fill="white"/>
<path d="M0 33.1394H1.76208V51.0781H0V33.1394Z" fill="white"/>
<path d="M14.5486 51.3848C9.88693 51.3848 5.76611 47.4257 5.76611 42.0948C5.76611 36.9145 9.66946 32.8327 14.8051 32.8327C18.9594 32.8327 21.1899 34.9238 21.1899 34.9238L20.2364 36.2454C18.6951 35.0767 16.8119 34.4477 14.8776 34.4554C10.5393 34.4554 7.62857 37.8011 7.62857 42.0614C7.62857 46.4777 10.662 49.7008 14.7494 49.7454C15.8282 49.7963 16.9033 49.5838 17.8816 49.1262C18.8599 48.6686 19.7122 47.9797 20.3646 47.119V44.0855H15.2959V42.5019H22.0486V47.8941C21.5793 48.589 20.9902 49.1951 20.3089 49.684C18.5301 51 16.9297 51.3848 14.5486 51.3848Z" fill="white"/>
<path d="M26.0351 47.7323C27.2972 48.9551 28.9735 49.6579 30.7303 49.7007C32.6931 49.7007 34.2991 48.5242 34.2991 46.5836C34.2991 42.0669 25.3437 43.2379 25.3437 37.6617C25.3437 35.0855 27.6132 32.8439 30.9199 32.8439C32.6851 32.7891 34.4053 33.407 35.7322 34.5725L34.8623 36.0502C33.7736 35.0922 32.3809 34.5509 30.9311 34.5223C28.6337 34.5223 27.156 36.0279 27.156 37.6059C27.156 41.8717 36.1114 40.645 36.1114 46.5279C36.1114 49.21 34.0482 51.3792 30.6801 51.3792C29.6251 51.394 28.5777 51.1974 27.5999 50.8009C26.6221 50.4044 25.7336 49.8161 24.9868 49.0706L26.0351 47.7323Z" fill="white"/>
<line x1="150.5" y1="2.18557e-08" x2="150.5" y2="51.8587" stroke="white"/>
</svg>
