<svg width="229" height="93" viewBox="0 0 229 93" fill="none" xmlns="http://www.w3.org/2000/svg">
<g clip-path="url(#clip0_19_2)">
<path d="M129.32 0H99.25V30.07H129.32V0Z" fill="white"/>
<path d="M87.6599 10.03H77.6299V20.05H87.6599V10.03Z" fill="white"/>
<path d="M150.95 10.03H140.92V20.05H150.95V10.03Z" fill="white"/>
<path d="M192.35 0H162.29V30.07H192.35V0Z" fill="white"/>
<path d="M227.73 0H197.66V30.07H227.73V0Z" fill="white"/>
<path d="M30.1899 0H0.129883V30.07H30.1899V0Z" fill="white"/>
<path d="M65.56 0H35.5V30.07H65.56V0Z" fill="white"/>
<path d="M221.81 59.86H222.81V69.52H227.72V70.46H221.77L221.81 59.86Z" fill="white"/>
<path d="M222.28 80.36H228.28V81.3H223.35V85.16H227.35V86.09H223.35V90H228.56V91H222.32L222.28 80.36Z" fill="white"/>
<path d="M98.9299 59.86H99.9299V70.46H98.9299V59.86Z" fill="white"/>
<path d="M104.26 59.86H105.26L110.66 67.49C111.03 68.01 111.54 68.92 111.54 68.92C111.54 68.92 111.45 68.04 111.45 67.49V59.86H112.45V70.46H111.45L106.04 62.83C105.68 62.3 105.17 61.4 105.17 61.4C105.17 61.4 105.25 62.27 105.25 62.83V70.46H104.25L104.26 59.86Z" fill="white"/>
<path d="M119.19 60.8H115.38V59.86H124V60.8H120.21V70.46H119.21L119.19 60.8Z" fill="white"/>
<path d="M126.89 59.86H132.89V60.8H127.96V64.65H131.96V65.59H127.96V69.52H133.16V70.46H126.93L126.89 59.86Z" fill="white"/>
<path d="M136.7 59.86H139.83C140.51 59.8102 141.192 59.9091 141.83 60.15C142.348 60.4337 142.774 60.8605 143.056 61.3795C143.339 61.8984 143.466 62.4876 143.422 63.0768C143.379 63.666 143.168 64.2304 142.812 64.7026C142.457 65.1748 141.974 65.5349 141.42 65.74V65.74C141.524 65.8726 141.618 66.013 141.7 66.16L144 70.43H142.8L140.4 66H137.74V70.47H136.74L136.7 59.86ZM140.25 65.06C140.709 65.0391 141.151 64.874 141.511 64.5882C141.872 64.3024 142.133 63.9103 142.258 63.4676C142.383 63.0249 142.365 62.5541 142.208 62.122C142.05 61.6898 141.761 61.3182 141.38 61.06C140.909 60.853 140.393 60.7671 139.88 60.81H137.74V65.07L140.25 65.06Z" fill="white"/>
<path d="M147.37 59.86H148.37L153.78 67.49C154.14 68.01 154.65 68.92 154.65 68.92C154.65 68.92 154.56 68.04 154.56 67.49V59.86H155.56V70.46H154.56L149.15 62.83C148.79 62.3 148.28 61.4 148.28 61.4C148.28 61.4 148.37 62.27 148.37 62.83V70.46H147.37V59.86Z" fill="white"/>
<path d="M165.16 67.08H160.89L159.69 70.46H158.59L162.47 59.86H163.59L167.48 70.46H166.38L165.16 67.08ZM163 61C163 61 162.77 61.88 162.59 62.37L161.17 66.21H164.82L163.44 62.37C163.25 61.88 163.03 61 163.03 61H163Z" fill="white"/>
<path d="M172.12 60.8H168.31V59.86H177V60.8H173.2V70.46H172.2L172.12 60.8Z" fill="white"/>
<path d="M179.82 59.86H180.82V70.46H179.82V59.86Z" fill="white"/>
<path d="M189.8 59.68C190.512 59.6747 191.217 59.811 191.875 60.0811C192.533 60.3512 193.131 60.7497 193.634 61.2533C194.136 61.7568 194.534 62.3554 194.803 63.0141C195.072 63.6729 195.207 64.3785 195.2 65.09C195.231 65.818 195.115 66.5449 194.858 67.2267C194.601 67.9086 194.209 68.5314 193.705 69.0577C193.201 69.5839 192.595 70.0027 191.925 70.2887C191.255 70.5748 190.534 70.7223 189.805 70.7223C189.076 70.7223 188.355 70.5748 187.685 70.2887C187.015 70.0027 186.409 69.5839 185.905 69.0577C185.401 68.5314 185.009 67.9086 184.752 67.2267C184.495 66.5449 184.379 65.818 184.41 65.09C184.403 64.3794 184.538 63.6745 184.806 63.0165C185.075 62.3584 185.471 61.7603 185.973 61.2568C186.474 60.7534 187.071 60.3547 187.728 60.084C188.385 59.8133 189.089 59.676 189.8 59.68V59.68ZM189.8 69.68C190.385 69.6672 190.962 69.5379 191.497 69.2998C192.032 69.0618 192.514 68.7196 192.915 68.2933C193.316 67.867 193.628 67.3651 193.834 66.8168C194.039 66.2686 194.133 65.6849 194.11 65.1C194.138 64.5172 194.048 63.9348 193.844 63.388C193.64 62.8412 193.328 62.3415 192.925 61.9191C192.523 61.4967 192.039 61.1604 191.502 60.9307C190.966 60.7009 190.388 60.5824 189.805 60.5824C189.222 60.5824 188.644 60.7009 188.108 60.9307C187.571 61.1604 187.087 61.4967 186.685 61.9191C186.282 62.3415 185.97 62.8412 185.766 63.388C185.562 63.9348 185.472 64.5172 185.5 65.1C185.477 65.6836 185.571 66.2659 185.776 66.813C185.98 67.36 186.292 67.8608 186.692 68.2862C187.092 68.7116 187.573 69.053 188.107 69.2906C188.641 69.5282 189.216 69.6572 189.8 69.67V69.68Z" fill="white"/>
<path d="M198.76 59.86H199.76L205.17 67.49C205.53 68.01 206.04 68.92 206.04 68.92C206.04 68.92 206 68 206 67.49V59.86H207V70.46H206L200.59 62.83C200.23 62.3 199.72 61.4 199.72 61.4C199.72 61.4 199.81 62.27 199.81 62.83V70.46H198.81L198.76 59.86Z" fill="white"/>
<path d="M216.55 67.08H212.28L211.08 70.46H210L213.88 59.86H215L218.89 70.46H217.79L216.55 67.08ZM214.41 61C214.41 61 214.18 61.88 214 62.37L212.58 66.21H216.23L214.84 62.37C214.66 61.88 214.44 61 214.44 61H214.41Z" fill="white"/>
<path d="M115.79 80.36H116.79L122.21 88C122.57 88.53 123.08 89.43 123.08 89.43C123.08 89.43 123 88.55 123 88V80.36H124V91H123L117.59 83.37C117.23 82.84 116.72 81.94 116.72 81.94C116.72 81.94 116.81 82.81 116.81 83.37V91H115.81L115.79 80.36Z" fill="white"/>
<path d="M132.4 89C133.145 89.7206 134.134 90.1346 135.17 90.16C135.431 90.1876 135.694 90.1613 135.944 90.0828C136.194 90.0043 136.425 89.8752 136.623 89.7036C136.821 89.5319 136.981 89.3214 137.094 89.0851C137.207 88.8488 137.271 88.5918 137.28 88.33C137.28 85.66 132 86.33 132 83.06C132.017 82.6523 132.117 82.2524 132.294 81.8847C132.471 81.517 132.721 81.1893 133.029 80.9216C133.337 80.6539 133.697 80.4518 134.085 80.3277C134.474 80.2037 134.884 80.1602 135.29 80.2C136.329 80.1631 137.343 80.5203 138.13 81.2L137.61 82.07C136.968 81.5045 136.146 81.1856 135.29 81.17C135.023 81.1382 134.751 81.1608 134.493 81.2364C134.234 81.312 133.993 81.4391 133.785 81.61C133.577 81.7809 133.405 81.9921 133.281 82.231C133.156 82.4698 133.081 82.7314 133.06 83C133.06 85.52 138.35 84.8 138.35 88.27C138.345 88.6749 138.256 89.0744 138.088 89.443C137.921 89.8116 137.678 90.1414 137.377 90.4113C137.075 90.6812 136.72 90.8853 136.335 91.0108C135.95 91.1363 135.543 91.1803 135.14 91.14C134.519 91.1502 133.902 91.035 133.326 90.8013C132.751 90.5676 132.228 90.2203 131.79 89.78L132.4 89Z" fill="white"/>
<path d="M145.94 89C146.685 89.7206 147.674 90.1346 148.71 90.16C148.971 90.1876 149.234 90.1613 149.484 90.0828C149.734 90.0043 149.965 89.8752 150.163 89.7035C150.361 89.5319 150.521 89.3214 150.634 89.0851C150.747 88.8488 150.811 88.5918 150.82 88.33C150.82 85.66 145.53 86.33 145.53 83.06C145.554 82.6538 145.659 82.2564 145.839 81.8914C146.019 81.5263 146.27 81.201 146.577 80.9345C146.885 80.6679 147.243 80.4656 147.629 80.3395C148.016 80.2134 148.425 80.1659 148.83 80.2C149.869 80.1631 150.883 80.5203 151.67 81.2L151.15 82.07C150.508 81.5045 149.686 81.1856 148.83 81.17C148.563 81.1382 148.291 81.1608 148.033 81.2364C147.774 81.312 147.533 81.4391 147.325 81.61C147.117 81.7809 146.945 81.9921 146.821 82.231C146.696 82.4698 146.621 82.7314 146.6 83C146.6 85.52 151.89 84.8 151.89 88.27C151.885 88.6749 151.796 89.0744 151.628 89.443C151.461 89.8116 151.218 90.1414 150.917 90.4113C150.615 90.6812 150.26 90.8853 149.875 91.0108C149.49 91.1362 149.083 91.1803 148.68 91.14C148.058 91.1493 147.44 91.0337 146.862 90.8001C146.285 90.5665 145.761 90.2196 145.32 89.78L145.94 89Z" fill="white"/>
<path d="M164.28 89C165.028 89.722 166.02 90.1361 167.06 90.16C167.32 90.1876 167.584 90.1613 167.834 90.0828C168.084 90.0043 168.315 89.8752 168.513 89.7035C168.71 89.5319 168.871 89.3214 168.984 89.0851C169.097 88.8488 169.16 88.5918 169.17 88.33C169.17 85.66 163.88 86.33 163.88 83.06C163.904 82.6538 164.009 82.2564 164.189 81.8914C164.368 81.5263 164.62 81.201 164.927 80.9345C165.235 80.6679 165.592 80.4656 165.979 80.3395C166.366 80.2134 166.774 80.1659 167.18 80.2C168.216 80.1616 169.228 80.5192 170.01 81.2L169.5 82.07C168.858 81.5045 168.035 81.1856 167.18 81.17C166.912 81.1367 166.639 81.1582 166.38 81.2332C166.12 81.3081 165.878 81.4349 165.669 81.606C165.459 81.777 165.287 81.9888 165.161 82.2284C165.036 82.468 164.961 82.7305 164.94 83C164.94 85.52 170.24 84.8 170.24 88.27C170.235 88.6777 170.146 89.08 169.976 89.4509C169.807 89.8217 169.561 90.153 169.256 90.4234C168.951 90.6938 168.593 90.8972 168.204 91.0206C167.815 91.1441 167.405 91.1847 167 91.14C166.377 91.1493 165.759 91.0337 165.182 90.8001C164.605 90.5665 164.081 90.2196 163.64 89.78L164.28 89Z" fill="white"/>
<path d="M173.77 80.36H179.77V81.3H174.84V85.16H178.84V86.09H174.84V90H180V91H173.76L173.77 80.36Z" fill="white"/>
<path d="M183.58 80.36H186.71C187.39 80.3102 188.072 80.4092 188.71 80.65C189.229 80.9329 189.655 81.3589 189.938 81.8773C190.221 82.3956 190.349 82.9845 190.307 83.5736C190.265 84.1627 190.054 84.7273 189.7 85.2001C189.346 85.6729 188.864 86.0338 188.31 86.24C188.31 86.24 188.41 86.38 188.58 86.66L190.88 90.93H189.69L187.3 86.47H184.63V91H183.63L183.58 80.36ZM187.14 85.56C187.596 85.5331 188.033 85.3648 188.389 85.0784C188.745 84.792 189.003 84.4018 189.128 83.9619C189.252 83.5221 189.236 83.0544 189.082 82.624C188.929 82.1936 188.645 81.8217 188.27 81.56C187.795 81.3546 187.276 81.2688 186.76 81.31H184.62V85.57L187.14 85.56Z" fill="white"/>
<path d="M192.9 80.36H194L196.94 88.36C197.14 88.91 197.35 89.73 197.35 89.73C197.35 89.73 197.56 88.91 197.75 88.36L200.69 80.36H201.81L197.91 91H196.83L192.9 80.36Z" fill="white"/>
<path d="M204.77 80.36H205.77V91H204.77V80.36Z" fill="white"/>
<path d="M214.71 80.18C216.11 80.1231 217.477 80.6147 218.52 81.55L217.96 82.32C217.058 81.563 215.918 81.1486 214.74 81.15C214.164 81.1439 213.593 81.2556 213.061 81.4781C212.53 81.7007 212.049 82.0294 211.65 82.4442C211.25 82.859 210.939 83.3511 210.736 83.8903C210.533 84.4296 210.443 85.0045 210.47 85.58C210.439 86.1666 210.527 86.7534 210.728 87.3052C210.929 87.8571 211.24 88.3625 211.642 88.7912C212.044 89.2199 212.528 89.563 213.065 89.7999C213.603 90.0369 214.183 90.1627 214.77 90.17C216.053 90.1633 217.283 89.6576 218.2 88.76L218.81 89.49C218.277 90.0211 217.643 90.4406 216.946 90.7239C216.249 91.0072 215.502 91.1487 214.75 91.14C214.029 91.1433 213.315 91.0005 212.65 90.7203C211.986 90.4401 211.385 90.0283 210.885 89.5097C210.384 88.9911 209.993 88.3764 209.736 87.7028C209.479 87.0291 209.362 86.3104 209.39 85.59C209.37 84.8817 209.493 84.1765 209.752 83.5169C210.011 82.8573 210.4 82.2569 210.897 81.7516C211.394 81.2463 211.988 80.8467 212.643 80.5766C213.298 80.3065 214.001 80.1716 214.71 80.18V80.18Z" fill="white"/>
<path d="M103.36 91.12C101.901 91.1001 100.51 90.5016 99.493 89.4561C98.4756 88.4105 97.9152 87.0037 97.9351 85.545C97.955 84.0863 98.5535 82.6953 99.599 81.6779C100.645 80.6605 102.051 80.1001 103.51 80.12C104.875 80.0693 106.212 80.5092 107.28 81.36L106.72 82.14C105.804 81.4709 104.694 81.1197 103.56 81.14C102.438 81.234 101.392 81.7431 100.626 82.5678C99.8597 83.3925 99.4289 84.4734 99.4176 85.599C99.4064 86.7246 99.8155 87.8139 100.565 88.6538C101.315 89.4937 102.35 90.0236 103.47 90.14C104.109 90.1664 104.744 90.0395 105.324 89.7698C105.903 89.5001 106.409 89.0956 106.8 88.59V86.82H103.8V85.88H107.8V89.06C107.531 89.4686 107.192 89.8273 106.8 90.12C105.813 90.86 104.59 91.2155 103.36 91.12V91.12Z" fill="white"/>
<path d="M0 59.43H3.16V91.6H0V59.43Z" fill="white"/>
<path d="M26.0901 92.15C17.7301 92.15 10.3401 85.05 10.3401 75.49C10.3401 66.2 17.3401 58.88 26.5501 58.88C34.0001 58.88 38.0001 62.63 38.0001 62.63L36.2901 65C33.526 62.9041 30.1489 61.7761 26.6801 61.79C18.9001 61.79 13.6801 67.79 13.6801 75.43C13.6801 83.35 19.1201 89.13 26.4501 89.21C28.3848 89.3014 30.3128 88.9203 32.0672 88.0997C33.8217 87.279 35.35 86.0436 36.5201 84.5V79.06H27.4301V76.22H39.5401V85.89C38.6984 87.1363 37.6419 88.2232 36.4201 89.1C33.2301 91.46 30.3601 92.15 26.0901 92.15Z" fill="white"/>
<path d="M46.6901 85.6C48.9534 87.7929 51.9595 89.0532 55.1101 89.13C58.6301 89.13 61.5101 87.02 61.5101 83.54C61.5101 75.44 45.4501 77.54 45.4501 67.54C45.4501 62.92 49.5201 58.9 55.4501 58.9C58.6157 58.8018 61.7005 59.9098 64.0801 62L62.5201 64.65C60.5678 62.932 58.0701 61.9613 55.4701 61.91C51.3501 61.91 48.7001 64.61 48.7001 67.44C48.7001 75.09 64.7601 72.89 64.7601 83.44C64.7601 88.25 61.0601 92.14 55.0201 92.14C53.128 92.1666 51.2498 91.814 49.4962 91.1029C47.7427 90.3919 46.1493 89.3368 44.8101 88L46.6901 85.6Z" fill="white"/>
</g>
<defs>
<clipPath id="clip0_19_2">
<rect width="228.52" height="92.15" fill="white"/>
</clipPath>
</defs>
</svg>
